<?xml version="1.0" encoding="utf-8"?>
<!-- Generator: Adobe Illustrator 19.0.0, SVG Export Plug-In . SVG Version: 6.00 Build 0)  -->
<svg version="1.1" xmlns="http://www.w3.org/2000/svg" xmlns:xlink="http://www.w3.org/1999/xlink" x="0px" y="0px"
	 viewBox="0 0 800 800" style="enable-background:new 0 0 800 800;" xml:space="preserve">
<style type="text/css">
	.st0{fill:#86CCCC;}
	.st1{fill:#FEDDBE;}
	.st2{fill:#DCAF59;}
	.st3{fill:#D39B2F;}
	.st4{fill:#E5C382;}
	.st5{fill:#FFFFFF;}
	.st6{fill:#3C3C3B;}
</style>
<g id="Background">
	<rect x="0" class="st0" width="800" height="800"/>
</g>
<g id="Objects">
	<path class="st1" d="M645.1,616.2L617.4,579c0,0,1.9-4.9-5.2-23.5c-7.1-18.6-26-26.8-40.5-28.7c-14.5-1.9-37.5,8.5-48.4,7.7
		c-10.9-0.8-38.3-23-49.5-23.3c-11.2-0.3-19.7,12.3-18.6,17.5c0.6,3,2.9,6.9,4.7,9.6c27.7,3.3,55.6,1.2,83.4,3.1
		c16.5,1.1,40.3,3.3,45.1,22.7c0.8,3.1-4,4.4-4.8,1.3c-5.2-20.5-37-19.3-53.3-19.6c-25.2-0.5-50.6,0.3-75.6-3.2
		c-4.6,0.4-9.9,0.7-12.4,0.3c-4.7-0.8-35.6-12.9-40.8-14.5c-5.2-1.6-33.1-21.3-39.1-24.9c-1.7-1-3.2-1.8-4.6-2.3
		c-7.7-0.4-22.6,1.2-19.2,10.2c1.9,4.9,6.1,8.9,10,12.2c6.4,5.4,13.3,10.1,20.3,14.7c23.7,15.4,48.4,29.2,74.5,40.1
		c2.9,1.2,1.6,6-1.3,4.7c-29.9-12.5-58.7-28.4-85.3-47c-8.2-5.7-22.3-14.3-23.5-25.4c-0.9-8.9,7-12.8,15.3-14.1
		C339,488.8,312.4,468,307,468c-6.6,0-13.1,5.3-13.1,13.1c0,7.8,16.8,27.5,28.7,38.2c11.9,10.7,26.5,36.4,34.8,40.8
		c8.2,4.4,77.7,51.5,95.8,56.9c18.1,5.5,87.6,13.7,104.6,20.8c17,7.1,13.7,23,13.7,23L645.1,616.2z"/>
	<g>
		<circle class="st2" cx="497.6" cy="516.4" r="34.5"/>
		<circle class="st3" cx="497.6" cy="516.4" r="30.9"/>
		<path class="st4" d="M525.6,516.4c0,15.4-12.5,27.9-27.9,27.9c-15.4,0-27.9-12.5-27.9-27.9c0-15.4,12.5-27.9,27.9-27.9
			C513.1,488.5,525.6,501,525.6,516.4z"/>
		<g>
			<path class="st3" d="M498.9,493.9v4.2c2.3,0.1,10.9,0.4,11.1,8.4h-5.4c-0.1-3.3-2.7-4.2-5.7-4.3v10.7c5.2,1.4,11.6,3.4,11.6,10.6
				c0,5-3.3,7.6-4.6,8.5c-2.4,1.5-5.3,1.8-7.1,1.9v5.1h-2.6v-5.1c-2.3-0.1-5.4-0.1-8.5-2.9c-2.7-2.4-2.9-4.9-2.9-7.1h5.2
				c-0.1,2.3,1.2,5.5,6.1,5.6v-12c-8.4-2.5-10.7-4.7-10.7-10.1c0-4.3,2.6-6.6,4.4-7.7c2.4-1.4,5.1-1.5,6.5-1.6v-4.2H498.9z
				 M496.3,502.2c-5.5,0.6-5.7,3.9-5.7,4.8c0,3.4,3.2,4.4,5.7,5.1V502.2z M498.9,529.5c4.5-0.1,6.3-2.9,6.3-5.4
				c0-3.8-3.7-5.1-6.3-5.9V529.5z"/>
		</g>
	</g>
	<g>
		<circle class="st2" cx="449.6" cy="493.9" r="34.5"/>
		<path class="st3" d="M480.6,493.9c0,17.1-13.8,30.9-30.9,30.9c-17.1,0-30.9-13.8-30.9-30.9c0-17.1,13.8-30.9,30.9-30.9
			C466.7,463,480.6,476.8,480.6,493.9z"/>
		<circle class="st4" cx="449.6" cy="493.9" r="27.9"/>
		<g>
			<path class="st3" d="M450.9,471.4v4.2c2.3,0,10.9,0.4,11.1,8.4h-5.4c-0.1-3.3-2.7-4.2-5.7-4.3v10.7c5.2,1.4,11.6,3.4,11.6,10.6
				c0,5-3.3,7.6-4.6,8.5c-2.4,1.5-5.3,1.8-7.1,1.9v5.1h-2.6v-5.1c-2.3-0.1-5.4-0.1-8.5-2.9c-2.7-2.4-2.9-4.9-2.9-7.1h5.2
				c-0.1,2.3,1.2,5.5,6.1,5.6v-12c-8.4-2.5-10.7-4.7-10.7-10.1c0-4.3,2.6-6.6,4.4-7.7c2.4-1.4,5.1-1.5,6.5-1.6v-4.2H450.9z
				 M448.3,479.7c-5.5,0.6-5.7,3.9-5.7,4.8c0,3.4,3.2,4.4,5.7,5.1V479.7z M450.9,507c4.5-0.1,6.3-2.9,6.3-5.4c0-3.8-3.7-5.1-6.3-5.9
				V507z"/>
		</g>
	</g>
	<g>
		<circle class="st2" cx="489.9" cy="382.6" r="34.5"/>
		<circle class="st3" cx="489.9" cy="382.6" r="30.9"/>
		<circle class="st4" cx="489.9" cy="382.6" r="27.9"/>
		<g>
			<path class="st3" d="M491.2,360.1v4.2c2.3,0,10.9,0.4,11.1,8.4h-5.4c-0.1-3.3-2.7-4.2-5.7-4.3v10.7c5.2,1.4,11.6,3.4,11.6,10.6
				c0,5-3.3,7.6-4.6,8.5c-2.4,1.5-5.3,1.8-7.1,1.9v5.1h-2.6v-5.1c-2.3-0.1-5.4-0.1-8.5-2.9c-2.7-2.4-2.9-4.9-2.9-7.1h5.2
				c-0.1,2.3,1.2,5.5,6.1,5.6v-12c-8.4-2.5-10.7-4.7-10.7-10.1c0-4.3,2.6-6.6,4.4-7.7c2.4-1.4,5.1-1.5,6.5-1.6v-4.2H491.2z
				 M488.5,368.4c-5.5,0.6-5.7,3.9-5.7,4.8c0,3.4,3.2,4.4,5.7,5.1V368.4z M491.1,395.7c4.5-0.1,6.3-2.9,6.3-5.4
				c0-3.8-3.7-5.1-6.3-5.9V395.7z"/>
		</g>
	</g>
	<g>
		<path class="st1" d="M360,185.3c0.3-0.5-0.4-2.4-1.5-4.5c-0.1,0.1-0.2,0.1-0.3,0.2c-9.9,3.6-19.6,9.5-28.9,14.4
			c-1.5,0.8-3,1.6-4.5,2.4c-1.2,2.5-3.4,5-5.6,6.8c-2.6,2.2-5.6,2.5-8.8,1.4c-0.1,0-0.1,0-0.1-0.1c-1,0.2-2.1,0.3-3.7,0.5
			c-5.8,0.5-11.6,1.2-17.4,2.2c0.9,4.1,2.6,8,4.5,11.9c12.1,1.3,32.3,2.8,38.8,0C342.1,216.2,359.3,186.7,360,185.3z"/>
		<path class="st1" d="M253.3,139.2c-12.6,4.9-50.7,44.5-61.9,56.3c-11.2,11.8-19.9,20.9-24.4,22.5c-4.6,1.6-35.9,5.3-35.9,5.3
			l19.8,81.3c0,0,19.8-6.6,25.3-7.2c5.4-0.5,54.8,11.6,74.9,11.6c20.2,0,92.5-10.1,100.2-11.9c7.7-1.7,51.1-20.9,54.9-24.7
			c3.8-3.8,2.6-18.6-3.1-21.7c-5.6-3.1-29.1-0.5-36.5,3.5c-7.4,4-19.7,6.8-31.7,4.7c-12-2.1-27.1-3.5-33.7-12
			c-3.1-4-7.5-15.3-11.1-26.4c-2-4.2-3.8-8.5-4.5-13c-0.1-0.7,0.1-1.2,0.5-1.6c0.2-0.2,0.5-0.4,0.9-0.5c5.8-1,11.6-1.8,17.4-2.3
			c1.9-0.2,4.7,0.3,6.2-0.8c0.6-0.5,1.3-0.9,2-1.4c3.1-2,6.4-3.9,9.7-5.6c0.2-0.2,0.5-0.4,0.8-0.4c1.8-1,3.7-2,5.5-2.9
			c9.3-4.9,18.8-10.6,28.6-14.2c0.3-0.1,0.7-0.1,0.9-0.1c0.1,0,0.1,0,0.2,0c1.4,0.7,10.1,5.4,15,7.8c4.9,2.4,13.2,4.1,14.9,5.7
			c1.7,1.6,19.3,24.8,29,27.9c9.7,3,18-6,17.5-11.7c-0.5-5.7-24.3-29.9-29-35.6c-4.7-5.7-29.6-21.9-35.7-25
			C363.8,143.7,265.9,134.4,253.3,139.2z"/>
		<g>
			<circle class="st2" cx="417.7" cy="234.7" r="34.5"/>
			<circle class="st3" cx="417.7" cy="234.7" r="30.9"/>
			<path class="st4" d="M445.6,234.7c0,15.4-12.5,27.9-27.9,27.9c-15.4,0-27.9-12.5-27.9-27.9c0-15.4,12.5-27.9,27.9-27.9
				C433.1,206.8,445.6,219.3,445.6,234.7z"/>
			<g>
				<path class="st3" d="M419,212.2v4.2c2.3,0.1,10.9,0.4,11.1,8.4h-5.4c-0.1-3.3-2.7-4.2-5.7-4.3v10.7c5.2,1.4,11.6,3.4,11.6,10.6
					c0,5-3.3,7.6-4.6,8.5c-2.4,1.5-5.3,1.8-7.1,1.9v5.1h-2.6v-5.1c-2.3-0.1-5.4-0.1-8.5-2.9c-2.7-2.4-2.9-4.9-2.9-7.1h5.2
					c-0.1,2.3,1.2,5.5,6.1,5.6v-12c-8.4-2.5-10.7-4.7-10.7-10.1c0-4.3,2.6-6.6,4.4-7.7c2.4-1.4,5.1-1.5,6.5-1.6v-4.2H419z
					 M416.3,220.5c-5.5,0.6-5.7,3.9-5.7,4.8c0,3.4,3.2,4.4,5.7,5.1V220.5z M418.9,247.8c4.5-0.1,6.3-2.9,6.3-5.4
					c0-3.8-3.7-5.1-6.3-5.9V247.8z"/>
			</g>
		</g>
		<path class="st1" d="M285.7,207.5c-0.1-0.7,0.1-1.2,0.5-1.6c0.1-0.1,0.1-0.1,0.2-0.2c-0.9-1.5-1.9-3-2.8-4.5
			c-0.3-0.5-0.5-0.9-0.6-1.4c-12-18.9-26.3-36.3-39.1-54.7c-16.5,12.8-43.4,40.7-52.5,50.3c-11.2,11.8-19.9,20.9-24.4,22.5
			c-4.6,1.6-35.9,5.3-35.9,5.3l19.8,81.3c0,0,19.8-6.6,25.3-7.2c5.4-0.5,54.8,11.6,74.9,11.6c20.2,0,92.5-10.1,100.2-11.9
			c7.7-1.7,51.1-20.9,54.9-24.7c3.8-3.8,2.6-18.6-3.1-21.7c-5.6-3.1-29.1-0.5-36.5,3.5c-7.4,4-19.7,6.8-31.7,4.7
			c-12-2.1-27.1-3.5-33.7-12c-3.1-4-7.5-15.3-11.1-26.4C288.2,216.3,286.4,212,285.7,207.5z"/>
		<g>
			<path class="st5" d="M143,301.7c0.1-2,33.2-9.3,33.2-9.3L169,199l10.7-1.3l0.9,9.4l8.2,88.1l1.5,16.4l-12.3,1l-0.4-7
				C177.6,305.7,142.9,303.6,143,301.7z"/>
			<path class="st6" d="M0,207.8v174.9l178.2-65.5l-0.2-4.5l-0.4-7c0,0-34.8-2-34.6-4c0.1-2,33.2-9.3,33.2-9.3L169,199l-1.3-17.1
				L0,207.8z M106.3,308c-1.1-6.1,3-11.9,9.1-13c6.1-1.1,11.9,3,13,9.1c1.1,6.1-3,11.9-9.1,13C113.2,318.1,107.4,314.1,106.3,308z"
				/>
			<circle class="st5" cx="117.3" cy="306" r="11.2"/>
		</g>
	</g>
	<path class="st1" d="M645.1,616.2L617.4,579c0,0,1.9-4.9-5.2-23.5c-7.1-18.6-26-26.8-40.5-28.7c-4.1-0.5-8.8-0.1-13.8,0.8
		c0,0.9-0.2,1.8-0.8,2.8c-2.5,4.4-5.6,8.4-9.6,11.4c16.1,1.3,36.4,4.6,40.8,22.4c0.8,3.1-4,4.4-4.8,1.3c-5.2-20.5-37-19.3-53.3-19.6
		c-25.2-0.5-50.6,0.3-75.6-3.2c-4.6,0.4-9.9,0.7-12.4,0.3c-4.7-0.8-35.6-12.9-40.8-14.5c-5.2-1.6-33.1-21.3-39.1-24.9
		c-1.7-1-3.2-1.8-4.6-2.3c-7.7-0.4-22.6,1.2-19.2,10.2c1.9,4.9,6.1,8.9,10,12.2c6.4,5.4,13.3,10.1,20.3,14.7
		c23.7,15.4,48.4,29.2,74.5,40.1c2.9,1.2,1.6,6-1.3,4.7c-29.9-12.5-58.7-28.4-85.3-47c-8.2-5.7-22.3-14.3-23.5-25.4
		c-0.9-8.9,7-12.8,15.3-14.1C339,488.8,312.4,468,307,468c-6.6,0-13.1,5.3-13.1,13.1c0,7.8,16.8,27.5,28.7,38.2
		c11.9,10.7,26.5,36.4,34.8,40.8c8.2,4.4,77.7,51.5,95.8,56.9c18.1,5.5,87.6,13.7,104.6,20.8c17,7.1,13.7,23,13.7,23L645.1,616.2z"
		/>
	<g>
		<path class="st5" d="M585.7,683.1c1.4-1.4-15.1-31-15.1-31l74.6-56.6l-6.1-8.9l-7.6,5.6l-71.3,52.3l-13.3,9.7l7.4,9.9l5.5-4.4
			C559.7,659.8,584.3,684.5,585.7,683.1z"/>
		<path class="st6" d="M658.8,585.1l-13.7,10.4L570.6,652c0,0,16.5,29.6,15.1,31c-1.4,1.4-26-23.2-26-23.2l-5.5,4.4l-3.5,2.8l60,133
			h186.8L658.8,585.1z M589.9,711c-3.2-5.3-1.6-12.2,3.7-15.4c5.3-3.2,12.2-1.6,15.4,3.7c3.2,5.3,1.6,12.2-3.7,15.4
			C600,717.9,593.1,716.3,589.9,711z"/>
		<path class="st5" d="M609,699.3c-3.2-5.3-10.1-6.9-15.4-3.7c-5.3,3.2-6.9,10.1-3.7,15.4c3.2,5.3,10.1,6.9,15.4,3.7
			C610.6,711.5,612.3,704.6,609,699.3z"/>
	</g>
</g>
</svg>
